# xmcd
#
# Track frame offsets: 
#        150
#        14380
#        26145
#        38445
#        51080
#        72066
#        83656
#        96018
#        108990
#        123065
#
# Disc length: 1807 seconds
#
# Revision: 0
# Processed by: cddbd v1.5.1PL0 Copyright (c) Steve Scherf et al.
# Submitted via: ExactAudioCopy v0.95a5
#
DISCID=6d070d0a
DTITLE=Johnny Otis Show - Cold Shot
DYEAR=1969
DGENRE=Blues
TTITLE0=The Signifyin' Monkey
TTITLE1=Country Girl
TTITLE2=I Believe I'll Go Back Home
TTITLE3=High Heel Sneakers
TTITLE4=Sittin' Here All Alone
TTITLE5=C.C. Rider
TTITLE6=You Better Look Out
TTITLE7=Goin' Back to L.A.
TTITLE8=Bye Bye Baby (Until We Meet Again)
TTITLE9=Cold Shot
EXTD=
EXTT0=
EXTT1=
EXTT2=
EXTT3=
EXTT4=
EXTT5=
EXTT6=
EXTT7=
EXTT8=
EXTT9=
PLAYORDER=
